<svg width="104.000000" height="20.000000" viewBox="0 0 104 20" fill="none" xmlns="http://www.w3.org/2000/svg" xmlns:xlink="http://www.w3.org/1999/xlink">
	<desc>
			Created with Pixso.
	</desc>
	<defs>
		<clipPath id="clip9_11143">
			<rect id="Logo" rx="0.000000" width="103.000000" height="19.000000" transform="translate(0.500000 0.500000)" fill="white" fill-opacity="0"/>
		</clipPath>
	</defs>
	<rect id="Logo" rx="0.000000" width="103.000000" height="19.000000" transform="translate(0.500000 0.500000)" fill="#FFFFFF" fill-opacity="0"/>
	<g clip-path="url(#clip9_11143)">
		<path id="Vector" d="M13.15 5.84C12.31 5.29 11.31 5 10.29 5L10.29 0C12.33 0 14.32 0.58 16.01 1.68C17.71 2.78 19.03 4.34 19.81 6.17C20.58 8 20.79 10.01 20.39 11.95C19.99 13.89 19.01 15.67 17.57 17.07C16.13 18.46 14.3 19.42 12.3 19.8C10.3 20.19 8.23 19.99 6.35 19.23C4.47 18.48 2.86 17.2 1.73 15.55C0.6 13.91 0 11.97 0 10L5.14 10C5.14 10.98 5.45 11.95 6.01 12.77C6.58 13.6 7.38 14.24 8.32 14.61C9.26 14.99 10.3 15.09 11.3 14.9C12.3 14.71 13.21 14.23 13.93 13.53C14.65 12.83 15.14 11.94 15.34 10.97C15.54 10 15.44 9 15.05 8.08C14.66 7.17 14 6.39 13.15 5.84Z" fill="#5046E5" fill-opacity="1.000000" fill-rule="evenodd"/>
		<path id="Vector" d="M5.14 0C5.14 0.65 5.01 1.3 4.75 1.91C4.49 2.52 4.11 3.07 3.64 3.53C3.16 3.99 2.59 4.36 1.97 4.61C1.34 4.87 0.67 5 0 5L0 10C1.35 10 2.69 9.74 3.94 9.23C5.18 8.73 6.32 7.99 7.28 7.07C8.23 6.14 8.99 5.04 9.51 3.82C10.03 2.61 10.29 1.31 10.29 0L5.14 0Z" fill="#5046E5" fill-opacity="1.000000" fill-rule="evenodd"/>
		<path id="Vector" d="M64.67 7.22L62.17 7.22L62.17 14.93L64.67 14.93L64.67 7.22Z" fill="#5046E5" fill-opacity="1.000000" fill-rule="nonzero"/>
		<path id="Vector" d="M62.45 5.78C62.71 6.03 63.04 6.16 63.43 6.16C63.82 6.16 64.14 6.03 64.39 5.78C64.64 5.51 64.77 5.2 64.77 4.83C64.77 4.45 64.64 4.13 64.39 3.88C64.14 3.62 63.82 3.5 63.43 3.5C63.04 3.5 62.71 3.62 62.45 3.88C62.2 4.13 62.07 4.45 62.07 4.83C62.07 5.2 62.2 5.51 62.45 5.78Z" fill="#5046E5" fill-opacity="1.000000" fill-rule="nonzero"/>
		<path id="Vector" d="M26.33 14.93L26.33 3.73L28.9 3.73L28.9 12.74L34.01 12.74L34.01 14.93L26.33 14.93Z" fill="#5046E5" fill-opacity="1.000000" fill-rule="nonzero"/>
		<path id="Vector" d="M38.62 15.1C37.81 15.1 37.07 14.93 36.4 14.58C35.75 14.22 35.23 13.73 34.85 13.12C34.47 12.51 34.28 11.82 34.28 11.06C34.28 10.3 34.47 9.62 34.85 9.01C35.23 8.41 35.75 7.93 36.4 7.59C37.06 7.23 37.8 7.05 38.62 7.05C39.45 7.05 40.19 7.22 40.84 7.57C41.5 7.92 42.01 8.4 42.39 9.01C42.78 9.62 42.97 10.3 42.97 11.06C42.97 11.82 42.78 12.51 42.39 13.12C42.01 13.73 41.5 14.22 40.84 14.58C40.19 14.93 39.45 15.1 38.62 15.1ZM38.62 12.9C38.98 12.9 39.3 12.82 39.57 12.68C39.84 12.52 40.05 12.3 40.19 12.03C40.34 11.74 40.42 11.42 40.42 11.06C40.42 10.7 40.34 10.39 40.19 10.12C40.04 9.85 39.83 9.64 39.55 9.49C39.29 9.33 38.98 9.25 38.62 9.25C38.27 9.25 37.96 9.33 37.69 9.49C37.42 9.64 37.21 9.85 37.06 10.12C36.9 10.4 36.83 10.71 36.83 11.07C36.83 11.42 36.9 11.74 37.06 12.03C37.21 12.3 37.42 12.52 37.69 12.68C37.96 12.82 38.27 12.9 38.62 12.9Z" fill="#5046E5" fill-opacity="1.000000" fill-rule="evenodd"/>
		<path id="Vector" d="M44.94 17.94C45.61 18.24 46.38 18.38 47.25 18.38C48.1 18.38 48.85 18.22 49.52 17.89C50.18 17.56 50.7 17.11 51.08 16.53C51.46 15.95 51.66 15.26 51.66 14.47L51.66 7.22L49.21 7.22L49.21 7.74C49.02 7.59 48.82 7.47 48.59 7.36C48.16 7.16 47.68 7.06 47.13 7.06C46.4 7.06 45.76 7.23 45.19 7.57C44.62 7.9 44.18 8.35 43.85 8.93C43.52 9.5 43.36 10.15 43.36 10.87C43.36 11.58 43.52 12.22 43.85 12.8C44.18 13.38 44.62 13.84 45.19 14.18C45.76 14.52 46.4 14.69 47.13 14.69C47.67 14.69 48.15 14.59 48.59 14.39C48.8 14.29 48.99 14.18 49.16 14.04L49.16 14.53C49.16 15.07 48.98 15.49 48.62 15.78C48.27 16.08 47.79 16.23 47.17 16.23C46.66 16.23 46.23 16.14 45.88 15.97C45.53 15.8 45.21 15.56 44.93 15.23L43.39 16.72C43.77 17.25 44.29 17.65 44.94 17.94ZM48.5 12.31C48.25 12.46 47.95 12.53 47.61 12.53C47.26 12.53 46.95 12.46 46.69 12.31C46.44 12.16 46.25 11.96 46.1 11.71C45.96 11.44 45.89 11.16 45.89 10.87C45.89 10.55 45.96 10.27 46.1 10.01C46.25 9.76 46.45 9.56 46.71 9.41C46.97 9.26 47.27 9.19 47.61 9.19C47.95 9.19 48.25 9.26 48.5 9.41C48.77 9.56 48.96 9.76 49.09 10.01C49.23 10.27 49.3 10.55 49.3 10.87C49.3 11.19 49.23 11.47 49.09 11.72C48.96 11.97 48.77 12.16 48.5 12.31Z" fill="#5046E5" fill-opacity="1.000000" fill-rule="evenodd"/>
		<path id="Vector" d="M56.91 15.1C56.1 15.1 55.36 14.93 54.69 14.58C54.04 14.22 53.52 13.73 53.14 13.12C52.76 12.51 52.57 11.82 52.57 11.06C52.57 10.3 52.76 9.62 53.14 9.01C53.52 8.41 54.04 7.93 54.69 7.59C55.34 7.23 56.09 7.05 56.91 7.05C57.74 7.05 58.48 7.22 59.13 7.57C59.79 7.92 60.3 8.4 60.68 9.01C61.06 9.62 61.26 10.3 61.26 11.06C61.26 11.82 61.06 12.51 60.68 13.12C60.3 13.73 59.79 14.22 59.13 14.58C58.48 14.93 57.74 15.1 56.91 15.1ZM56.91 12.9C57.27 12.9 57.59 12.82 57.86 12.68C58.13 12.52 58.34 12.3 58.48 12.03C58.63 11.74 58.71 11.42 58.71 11.06C58.71 10.7 58.63 10.39 58.48 10.12C58.33 9.85 58.12 9.64 57.84 9.49C57.58 9.33 57.27 9.25 56.91 9.25C56.56 9.25 56.25 9.33 55.98 9.49C55.71 9.64 55.5 9.85 55.34 10.12C55.19 10.4 55.12 10.71 55.12 11.07C55.12 11.42 55.19 11.74 55.34 12.03C55.5 12.3 55.71 12.52 55.98 12.68C56.25 12.82 56.56 12.9 56.91 12.9Z" fill="#5046E5" fill-opacity="1.000000" fill-rule="evenodd"/>
		<path id="Vector" d="M70.67 15.09C70.14 15.09 69.65 14.99 69.21 14.78C68.97 14.68 68.76 14.55 68.57 14.41L68.57 18.18L66.1 18.18L66.1 7.22L68.6 7.22L68.6 7.75C68.78 7.61 68.98 7.48 69.21 7.38C69.65 7.17 70.14 7.06 70.67 7.06C71.43 7.06 72.09 7.24 72.67 7.59C73.25 7.93 73.71 8.41 74.04 9.01C74.38 9.62 74.54 10.3 74.54 11.07C74.54 11.85 74.38 12.53 74.04 13.14C73.71 13.74 73.25 14.21 72.67 14.56C72.09 14.91 71.43 15.09 70.67 15.09ZM70.22 12.9C70.58 12.9 70.89 12.82 71.15 12.66C71.42 12.5 71.63 12.28 71.78 12.01C71.94 11.74 72.01 11.42 72.01 11.07C72.01 10.71 71.94 10.4 71.78 10.12C71.63 9.85 71.42 9.64 71.15 9.49C70.89 9.33 70.58 9.25 70.23 9.25C69.89 9.25 69.58 9.33 69.3 9.49C69.04 9.64 68.84 9.85 68.68 10.12C68.53 10.4 68.45 10.71 68.45 11.07C68.45 11.42 68.52 11.74 68.67 12.01C68.82 12.28 69.03 12.5 69.3 12.66C69.58 12.82 69.88 12.9 70.22 12.9Z" fill="#5046E5" fill-opacity="1.000000" fill-rule="evenodd"/>
		<path id="Vector" d="M76.99 14.94C77.45 15.06 77.91 15.12 78.38 15.12C79.37 15.12 80.15 14.9 80.73 14.45C81.32 14.01 81.61 13.41 81.61 12.66C81.61 12.17 81.52 11.78 81.33 11.49C81.15 11.18 80.91 10.94 80.61 10.76C80.32 10.58 80.01 10.43 79.68 10.33C79.36 10.22 79.05 10.13 78.75 10.06C78.46 9.99 78.22 9.9 78.03 9.81C77.85 9.71 77.76 9.58 77.76 9.43C77.76 9.28 77.83 9.17 77.97 9.09C78.11 9.01 78.32 8.97 78.61 8.97C78.9 8.97 79.2 9.02 79.5 9.14C79.82 9.26 80.1 9.46 80.35 9.74L81.77 8.35C81.41 7.9 80.95 7.57 80.37 7.35C79.8 7.12 79.18 7 78.51 7C77.87 7 77.3 7.1 76.83 7.32C76.35 7.53 75.98 7.82 75.72 8.19C75.45 8.55 75.32 8.98 75.32 9.47C75.32 9.94 75.42 10.32 75.6 10.63C75.79 10.93 76.03 11.16 76.32 11.33C76.61 11.5 76.92 11.63 77.25 11.72C77.58 11.82 77.89 11.91 78.18 11.99C78.47 12.07 78.71 12.16 78.9 12.26C79.1 12.36 79.19 12.5 79.19 12.69C79.19 12.84 79.11 12.96 78.95 13.04C78.8 13.13 78.57 13.17 78.28 13.17C77.85 13.17 77.46 13.09 77.1 12.95C76.74 12.79 76.43 12.57 76.17 12.3L74.75 13.69C75.02 13.98 75.35 14.23 75.73 14.45C76.12 14.66 76.54 14.83 76.99 14.94Z" fill="#5046E5" fill-opacity="1.000000" fill-rule="nonzero"/>
		<path id="Vector" d="M86.16 15.1C85.44 15.1 84.79 14.96 84.22 14.67C83.67 14.38 83.23 13.98 82.92 13.47C82.6 12.95 82.44 12.36 82.44 11.69L82.44 7.22L84.94 7.22L84.94 11.66C84.94 11.93 84.98 12.15 85.07 12.34C85.17 12.53 85.31 12.68 85.5 12.79C85.68 12.89 85.9 12.95 86.16 12.95C86.53 12.95 86.83 12.83 87.05 12.61C87.26 12.38 87.37 12.06 87.37 11.66L87.37 7.22L89.87 7.22L89.87 11.68C89.87 12.35 89.71 12.95 89.4 13.47C89.08 13.98 88.65 14.38 88.09 14.67C87.54 14.96 86.89 15.1 86.16 15.1Z" fill="#5046E5" fill-opacity="1.000000" fill-rule="nonzero"/>
		<path id="Vector" d="M93.61 7.22L91.11 7.22L91.11 14.93L93.61 14.93L93.61 10.42C93.61 10.16 93.67 9.94 93.77 9.76C93.89 9.58 94.05 9.44 94.25 9.35C94.44 9.24 94.67 9.19 94.92 9.19C95.28 9.19 95.58 9.3 95.82 9.52C96.07 9.73 96.19 10.03 96.19 10.42L96.19 14.93L98.69 14.93L98.69 10.42C98.69 10.16 98.74 9.94 98.85 9.76C98.97 9.58 99.13 9.44 99.33 9.35C99.52 9.24 99.74 9.19 100 9.19C100.35 9.19 100.65 9.3 100.89 9.52C101.14 9.73 101.27 10.03 101.27 10.42L101.27 14.93L103.77 14.93L103.77 10.15C103.77 9.51 103.63 8.96 103.34 8.51C103.07 8.04 102.7 7.69 102.22 7.44C101.75 7.19 101.21 7.06 100.6 7.06C99.98 7.06 99.42 7.19 98.92 7.46C98.59 7.63 98.31 7.84 98.06 8.11C97.84 7.83 97.56 7.6 97.24 7.43C96.8 7.18 96.31 7.06 95.75 7.06C95.16 7.06 94.63 7.18 94.17 7.43C93.96 7.53 93.78 7.65 93.61 7.79L93.61 7.22Z" fill="#5046E5" fill-opacity="1.000000" fill-rule="nonzero"/>
	</g>
</svg>
